<svg width="120" height="71" viewBox="0 0 120 71" fill="none" xmlns="http://www.w3.org/2000/svg">
<path d="M36.8504 30.3926C36.5204 30.3926 36.2204 30.2126 36.0804 29.9126L32.7504 22.9926C32.6604 22.8026 32.6204 22.5926 32.6304 22.3826C32.6604 21.6726 33.4104 20.2426 34.9904 21.0226C35.2504 21.1526 35.5804 21.4826 35.7204 21.7426L38.0804 26.6326C38.2104 26.8826 38.4604 27.0426 38.7404 27.0726L46.0304 27.6426L45.9904 30.3026L36.8504 30.3926Z" fill="#E88100"/>
<path d="M46.3097 27.6326C46.2097 27.6326 46.1097 27.6426 46.0097 27.6526L45.9697 30.3126C46.0697 30.3326 46.1697 30.3426 46.2697 30.3426C47.1697 30.3526 47.8997 29.7626 47.9197 29.0126C47.9297 28.2626 47.2097 27.6426 46.3097 27.6326Z" fill="#EEA67B"/>
<path d="M80.0003 55.1225V28.6025V24.0125H76.3603H75.5103V3.46252H70.4003H68.7003H66.0303V12.7025H68.7003V52.2125H75.5103V28.6025H76.3603V57.6725H78.7303H80.0003H119.74V55.1225H80.0003Z" fill="#444248"/>
<path d="M73.0598 3.46252H71.3398V52.2125H73.0598V3.46252Z" fill="#336466"/>
<path d="M53.9197 6.24254C53.1397 4.60254 51.5497 3.48254 49.7397 3.29254L15.4797 0.0125403C14.1397 -0.12746 12.9697 0.922541 12.9697 2.27254V27.8525L17.3497 31.7725V31.3225V6.78254C17.3497 5.43254 18.5197 4.38254 19.8597 4.52254L47.1297 7.05254C48.9497 7.24254 50.5397 8.37254 51.3197 10.0325L56.9197 28.9525L57.1997 29.5525H61.7197L53.9197 6.24254Z" fill="#444248"/>
<path d="M54.1397 33.6126L50.1997 27.5726C51.4497 25.7826 51.6497 24.3026 50.7897 24.0926C49.9797 23.9026 48.4397 24.9026 47.1797 26.3726C45.8697 27.8926 45.0597 29.6926 45.4797 30.4526C45.8897 31.2026 47.2997 30.6826 48.7697 29.2626L52.0797 33.8926L54.1397 33.6126ZM46.5397 29.1826C46.2197 28.7726 46.6897 27.6426 47.5397 26.6426C48.3697 25.6726 49.3797 25.0326 49.8597 25.2226C50.3897 25.4326 50.0997 26.5726 49.0997 27.7826C48.0797 29.0126 46.8997 29.6426 46.5397 29.1826Z" fill="#444248"/>
<path d="M52.0804 27.4425L45.6904 32.4725V50.5225H53.8104V27.4425H52.0804Z" fill="#64739A"/>
<path d="M29.1803 34.8026C28.7303 33.6326 28.1003 30.0526 27.4303 27.0226C27.0903 25.5026 26.1803 24.0226 24.6303 23.8326C24.6203 23.8326 24.6103 23.8326 24.6003 23.8326C23.3803 23.7526 22.1703 23.7226 20.9603 23.6926C20.5203 23.6826 20.1703 24.0426 20.1903 24.4726C20.3903 28.5826 21.1203 36.2126 23.8203 39.7126C27.6103 44.6226 32.6903 51.4226 32.6903 51.4226H40.7203L39.1303 38.9926C39.1303 38.9926 39.3503 37.8526 31.3503 36.9326C30.3803 36.8226 29.5303 35.7126 29.1803 34.8026Z" fill="#64739A"/>
<path d="M60.72 27.3825H51.61C51.61 27.3825 53.49 48.0625 50.01 48.0625C46.53 48.0625 33.27 48.0625 33.27 48.0625L28.55 37.0725L12.73 25.9625C7.28 25.9625 4.16 29.0125 1.67 33.8625L1.61 33.9725C0.550001 36.0325 0 38.3125 0 40.6225V53.5725C0 56.6525 0.619997 59.1525 3.7 59.1525H67.95C61.73 46.2325 69.66 44.3525 69.66 44.3525C69.66 44.3525 61.87 30.0725 60.72 27.3825Z" fill="#336466"/>
<path d="M17.5796 41.6725C9.99961 41.6725 3.84961 47.8225 3.84961 55.4025C3.84961 56.7125 4.03961 57.9625 4.37961 59.1625H7.54961C7.42961 58.4825 7.34961 57.7825 7.34961 57.0625C7.34961 50.7425 11.9296 45.6225 17.5696 45.6225C23.2096 45.6225 27.7896 50.7425 27.7896 57.0625C27.7896 57.7825 27.7096 58.4825 27.5896 59.1625H30.7596C31.0996 57.9625 31.2896 56.7125 31.2896 55.4025C31.2996 47.8225 25.1596 41.6725 17.5796 41.6725Z" fill="#224142"/>
<path d="M71.9295 49.5125L74.1495 45.8925C71.6495 43.2925 68.1395 41.6725 64.2495 41.6725C56.6695 41.6725 50.5195 47.8225 50.5195 55.4025C50.5195 56.7125 50.7095 57.9625 51.0495 59.1625H54.2195C54.0995 58.4825 54.0195 57.7825 54.0195 57.0625C54.0195 50.7425 58.5995 45.6225 64.2395 45.6225C67.3095 45.6225 70.0495 47.1325 71.9295 49.5125Z" fill="#224142"/>
<path d="M74.4094 57.8154C75.7401 52.2052 72.271 46.5785 66.6608 45.2477C61.0506 43.917 55.4239 47.3861 54.0931 52.9963C52.7624 58.6065 56.2315 64.2332 61.8417 65.564C67.4519 66.8947 73.0786 63.4256 74.4094 57.8154Z" fill="#444248"/>
<path d="M70.6404 55.4026C70.6404 58.9326 67.7804 61.7926 64.2504 61.7926C60.7204 61.7926 57.8604 58.9326 57.8604 55.4026C57.8604 51.8726 60.7204 49.0126 64.2504 49.0126C67.7804 49.0126 70.6404 51.8726 70.6404 55.4026Z" fill="#B8B8B8"/>
<path d="M24.5364 63.1849C28.8354 59.3425 29.2056 52.7426 25.3632 48.4436C21.5209 44.1446 14.921 43.7744 10.622 47.6168C6.32294 51.4591 5.95274 58.059 9.79511 62.358C13.6375 66.6571 20.2374 67.0272 24.5364 63.1849Z" fill="#444248"/>
<path d="M23.9704 55.4026C23.9704 58.9326 21.1104 61.7926 17.5804 61.7926C14.0504 61.7926 11.1904 58.9326 11.1904 55.4026C11.1904 51.8726 14.0504 49.0126 17.5804 49.0126C21.1104 49.0126 23.9704 51.8726 23.9704 55.4026Z" fill="#B8B8B8"/>
<path d="M66.9498 55.4025C66.9498 56.8925 65.7398 58.1025 64.2498 58.1025C62.7598 58.1025 61.5498 56.8925 61.5498 55.4025C61.5498 53.9125 62.7598 52.7025 64.2498 52.7025C65.7398 52.7025 66.9498 53.9125 66.9498 55.4025Z" fill="#444248"/>
<path d="M20.2701 55.4025C20.2701 56.8925 19.0601 58.1025 17.5701 58.1025C16.0801 58.1025 14.8701 56.8925 14.8701 55.4025C14.8701 53.9125 16.0801 52.7025 17.5701 52.7025C19.0601 52.7025 20.2701 53.9125 20.2701 55.4025Z" fill="#444248"/>
<path d="M105.251 38.3226H93.0605V55.1326H105.251V38.3226Z" fill="#C78B5B"/>
<path d="M98.3703 38.3226H81.3203V55.1326H98.3703V38.3226Z" fill="#E5BE84"/>
<path d="M92.1405 38.3226H87.5605V42.6526H92.1405V38.3226Z" fill="#EAD1B7"/>
<path d="M92.1405 50.8126H87.5605V55.1426H92.1405V50.8126Z" fill="#EAD1B7"/>
<path d="M86.5606 51.6926H82.1406V54.3626H86.5606V51.6926Z" fill="#F7EEE5"/>
<path d="M82.8108 52.0626H82.3408V53.9826H82.8108V52.0626Z" fill="#444248"/>
<path d="M83.2606 52.0626H83.1006V53.9826H83.2606V52.0626Z" fill="#444248"/>
<path d="M84.3107 52.0626H83.9307V53.9826H84.3107V52.0626Z" fill="#444248"/>
<path d="M83.6812 52.0626H83.4512V53.9826H83.6812V52.0626Z" fill="#444248"/>
<path d="M84.7704 52.0626H84.6104V53.9826H84.7704V52.0626Z" fill="#444248"/>
<path d="M85.6804 52.0626H85.3604V53.9826H85.6804V52.0626Z" fill="#444248"/>
<path d="M85.951 52.0626H85.791V53.9826H85.951V52.0626Z" fill="#444248"/>
<path d="M85.221 52.0626H85.001V53.9826H85.221V52.0626Z" fill="#444248"/>
<path d="M86.3403 52.0626H86.1104V53.9826H86.3403V52.0626Z" fill="#444248"/>
<path d="M117.26 38.3226H100.21V55.1326H117.26V38.3226Z" fill="#E5BE84"/>
<path d="M111.03 38.3226H106.45V42.6526H111.03V38.3226Z" fill="#EAD1B7"/>
<path d="M111.03 50.8126H106.45V55.1426H111.03V50.8126Z" fill="#EAD1B7"/>
<path d="M105.44 51.6926H101.02V54.3626H105.44V51.6926Z" fill="#F7EEE5"/>
<path d="M101.699 52.0626H101.229V53.9826H101.699V52.0626Z" fill="#444248"/>
<path d="M102.139 52.0626H101.979V53.9826H102.139V52.0626Z" fill="#444248"/>
<path d="M103.199 52.0626H102.819V53.9826H103.199V52.0626Z" fill="#444248"/>
<path d="M102.57 52.0626H102.34V53.9826H102.57V52.0626Z" fill="#444248"/>
<path d="M103.649 52.0626H103.489V53.9826H103.649V52.0626Z" fill="#444248"/>
<path d="M104.559 52.0626H104.239V53.9826H104.559V52.0626Z" fill="#444248"/>
<path d="M104.83 52.0626H104.67V53.9826H104.83V52.0626Z" fill="#444248"/>
<path d="M104.1 52.0626H103.88V53.9826H104.1V52.0626Z" fill="#444248"/>
<path d="M105.229 52.0626H104.999V53.9826H105.229V52.0626Z" fill="#444248"/>
<path d="M107.861 21.5126H90.8105V38.3226H107.861V21.5126Z" fill="#E5BE84"/>
<path d="M101.631 21.5126H97.0508V25.8426H101.631V21.5126Z" fill="#EAD1B7"/>
<path d="M101.631 34.0026H97.0508V38.3326H101.631V34.0026Z" fill="#EAD1B7"/>
<path d="M96.0509 34.8826H91.6309V37.5526H96.0509V34.8826Z" fill="#F7EEE5"/>
<path d="M92.3011 35.2526H91.8311V37.1726H92.3011V35.2526Z" fill="#444248"/>
<path d="M92.7508 35.2526H92.5908V37.1726H92.7508V35.2526Z" fill="#444248"/>
<path d="M93.8107 35.2526H93.4307V37.1726H93.8107V35.2526Z" fill="#444248"/>
<path d="M93.1714 35.2526H92.9414V37.1726H93.1714V35.2526Z" fill="#444248"/>
<path d="M94.2606 35.2526H94.1006V37.1726H94.2606V35.2526Z" fill="#444248"/>
<path d="M95.1706 35.2526H94.8506V37.1726H95.1706V35.2526Z" fill="#444248"/>
<path d="M95.4413 35.2526H95.2812V37.1726H95.4413V35.2526Z" fill="#444248"/>
<path d="M94.7112 35.2526H94.4912V37.1726H94.7112V35.2526Z" fill="#444248"/>
<path d="M95.8306 35.2526H95.6006V37.1726H95.8306V35.2526Z" fill="#444248"/>
<path d="M32.32 17.9926L32.21 22.1026L34.36 22.1426L34.53 18.0226L32.32 17.9926Z" fill="#EEA67B"/>
<path d="M37.7402 32.3925L43.6302 35.8725C44.2902 36.2625 44.6702 37.0025 44.5902 37.7725L43.7702 45.8425H39.7002L39.5702 38.6325L32.7302 37.1525C31.4002 36.8625 30.4502 35.6925 30.4502 34.3325V31.9725L37.7402 32.3925Z" fill="#E88100"/>
<path d="M39.9805 45.8425V48.1025H45.7805C45.7805 48.1025 46.8805 46.5625 43.7705 45.8425H39.9805Z" fill="#444248"/>
<path d="M42.5397 35.8825L38.1696 32.6125C37.8896 27.8525 37.1197 25.7225 36.7197 23.7225C36.4997 22.6225 35.6596 21.2825 34.6196 20.5225C34.4096 20.5625 34.1897 20.5825 33.9597 20.5825C33.2297 20.5825 32.6097 20.3925 32.1097 20.0825C30.8797 20.4625 29.9397 21.5225 29.7097 22.8325C28.9597 27.1625 29.1796 31.4825 29.2596 32.6125L29.3497 34.3425C29.3497 35.7025 30.2997 36.8825 31.6297 37.1625L38.4697 38.6425L38.5997 45.8525H42.6696L43.4897 37.7825C43.5797 37.0125 43.2097 36.2725 42.5397 35.8825Z" fill="#FEA92C"/>
<g opacity="0.36">
<path d="M36.8597 27.4926L34.4997 22.6026C34.3597 22.3426 34.0397 22.0126 33.7697 21.8826C32.1897 21.1126 31.4397 22.5426 31.4097 23.2426C31.3997 23.4526 31.4397 23.6626 31.5297 23.8526L34.0997 30.8826C34.2397 31.1826 34.5397 31.3626 34.8697 31.3626H38.0797C38.0797 31.3626 37.8997 29.2626 37.8597 28.1826C37.7997 28.1226 36.8997 27.5726 36.8597 27.4926Z" fill="#CAA92C"/>
</g>
<path d="M35.9998 30.6126C35.6698 30.6126 35.3698 30.4326 35.2298 30.1326L31.8998 23.2126C31.8098 23.0226 31.7698 22.8126 31.7798 22.6026C31.8098 21.8926 32.5598 20.4626 34.1398 21.2426C34.3998 21.3726 34.7298 21.7026 34.8698 21.9626L37.2298 26.8526C37.3598 27.1026 37.6098 27.2626 37.8898 27.2926L45.1798 27.8626L45.1398 30.5226L35.9998 30.6126Z" fill="#FEA92C"/>
<path d="M45.4601 27.8425C45.3601 27.8425 45.2601 27.8525 45.1601 27.8625L45.1201 30.5225C45.2201 30.5425 45.3201 30.5525 45.4201 30.5525C46.3201 30.5625 47.0501 29.9725 47.0701 29.2225C47.0801 28.4725 46.3601 27.8625 45.4601 27.8425Z" fill="#F7B896"/>
<path d="M38.8901 8.17259C38.4301 8.74259 36.7401 8.66259 33.3701 8.03259C31.7501 7.73259 30.4701 8.17259 29.8401 8.72259C28.3501 10.0326 28.0301 11.7626 28.5301 14.2026C28.9501 16.2426 31.1201 16.8226 31.1201 16.8226C30.9801 15.9326 31.0402 14.7526 31.0402 14.7526C31.0402 14.7526 30.9201 13.9826 30.7301 13.0426C31.0701 13.2326 31.1101 13.5926 31.1101 13.5926H31.9701C31.9701 13.5926 31.7701 12.3626 32.1101 11.6126C32.4501 10.8626 32.2802 11.3226 36.0702 11.3226C36.7502 11.3226 37.2702 11.2226 37.6802 11.0526C39.5402 10.2926 38.8901 8.17259 38.8901 8.17259Z" fill="#444248"/>
<path d="M32.1197 11.3726C31.7797 12.1226 31.9797 13.3526 31.9797 13.3526H31.1197C31.1197 13.3526 31.0497 12.7626 30.3897 12.6826C30.1397 12.6526 29.5697 12.8826 29.4797 13.5226C29.4797 13.5726 29.4697 13.6126 29.4697 13.6626C29.4697 14.4426 30.0997 15.0826 30.8697 15.0826C30.9097 15.0826 30.9397 15.0726 30.9797 15.0726V16.1326C30.9797 17.9726 32.4697 19.4526 34.2997 19.4526H34.3697C36.2097 19.4526 37.6897 17.9626 37.6897 16.1326V10.8026C37.2797 10.9726 36.7597 11.0726 36.0797 11.0726C32.2997 11.0826 32.4697 10.6226 32.1197 11.3726Z" fill="#F7B896"/>
<path d="M36.1299 14.5326C36.384 14.5326 36.5899 14.3266 36.5899 14.0726C36.5899 13.8185 36.384 13.6125 36.1299 13.6125C35.8759 13.6125 35.6699 13.8185 35.6699 14.0726C35.6699 14.3266 35.8759 14.5326 36.1299 14.5326Z" fill="#444248"/>
<path d="M37.3504 17.6126C37.3504 17.6126 37.6904 17.1626 37.6904 16.2526H36.2104C36.2004 16.2426 36.3604 17.4526 37.3504 17.6126Z" fill="white"/>
<path d="M36.5402 13.1226H35.6202C35.5302 13.1226 35.4502 13.0526 35.4502 12.9526V12.9226C35.4502 12.8326 35.5202 12.7526 35.6202 12.7526H36.5402C36.6302 12.7526 36.7102 12.8226 36.7102 12.9226V12.9526C36.7002 13.0526 36.6302 13.1226 36.5402 13.1226Z" fill="#444248"/>
<path d="M38.9004 45.8425V48.1025H44.7004C44.7004 48.1025 45.8004 46.5625 42.6904 45.8425H38.9004Z" fill="#444248"/>
</svg>
