<svg width="76" height="77" viewBox="0 0 76 77" fill="none" xmlns="http://www.w3.org/2000/svg">
<path d="M33.5448 7.57422H0V54.0178H33.5448V7.57422Z" fill="#A6A5AC"/>
<path d="M36.5145 5.04517H2.96973V51.4887H36.5145V5.04517Z" fill="white"/>
<path d="M39.4901 2.52905H5.94531V48.9726H39.4901V2.52905Z" fill="#A6A5AC"/>
<path d="M42.4579 0H8.91309V46.4436H42.4579V0Z" fill="white"/>
<path d="M35.8362 8.59277H15.543V9.82408H35.8362V8.59277Z" fill="#1A3248"/>
<path d="M39.6879 13.3318H11.6807V14.5631H39.6879V13.3318Z" fill="#1A3248"/>
<path d="M39.6879 17.8243H11.6807V19.0557H39.6879V17.8243Z" fill="#1A3248"/>
<path d="M39.6879 22.3169H11.6807V23.5482H39.6879V22.3169Z" fill="#1A3248"/>
<path d="M39.6879 26.8163H11.6807V28.0476H39.6879V26.8163Z" fill="#1A3248"/>
<path d="M39.6879 31.3087H11.6807V32.54H39.6879V31.3087Z" fill="#1A3248"/>
<path d="M39.6938 35.8081H29.3975V37.0394H39.6938V35.8081Z" fill="#1A3248"/>
<path opacity="0.4" d="M25.0732 54.0178H33.5459V51.4953H36.521V48.9727H39.4895V46.4436H42.4646V0H25.0732V54.0178Z" fill="#B3A281"/>
<path d="M52.409 43.0226H36.422C33.3071 43.0226 30.7646 39.9344 30.7646 36.134V33.891C30.7646 30.0972 33.3005 27.0023 36.422 27.0023H52.409C55.5239 27.0023 58.0663 30.0906 58.0663 33.891V36.134C58.0663 39.9344 55.5305 43.0226 52.409 43.0226ZM36.422 29.8243C34.8845 29.8243 33.58 31.688 33.58 33.8976V36.1406C33.58 38.3503 34.8779 40.2139 36.422 40.2139H52.409C53.9465 40.2139 55.251 38.3503 55.251 36.1406V33.8976C55.251 31.688 53.9531 29.8243 52.409 29.8243H36.422Z" fill="#FF9900"/>
<path d="M75.2122 73.5324C75.2122 75.4426 73.6482 77 71.7446 77H17.0946C15.1844 77 13.627 75.4426 13.627 73.5324V39.1756C13.627 37.2654 15.191 35.7013 17.0946 35.7013H71.7446C73.6548 35.7013 75.2122 37.2654 75.2122 39.1756V73.5324Z" fill="#BDBDBD"/>
<path d="M75.2122 39.1756C75.2122 37.2654 73.6482 35.7013 71.7446 35.7013H17.0946C15.1844 35.7013 13.627 37.2654 13.627 39.1756V51.1426L44.4229 61.592L75.2189 51.1426V39.1756H75.2122Z" fill="#336466"/>
<path d="M34.2304 33.272H30.1172V35.7013H34.2304V33.272Z" fill="#FF9900"/>
<path d="M58.7101 33.272H54.6035V35.7013H58.7101V33.272Z" fill="#FF9900"/>
<path d="M47.2896 58.517H41.5391V65.0063H47.2896V58.517Z" fill="#FF9900"/>
<g opacity="0.7">
<path d="M46.4842 58.517H42.3311V64.2475H46.4842V58.517Z" fill="#FF9900"/>
</g>
<path opacity="0.4" d="M71.7436 35.7013H58.7117V33.2719H58.0395C57.7799 29.7644 55.3572 27.0089 52.4087 27.0089H44.4219V29.8243H52.4087C53.7998 29.8243 54.9978 31.3484 55.2108 33.2719H54.6051V35.7013H44.4219V76.9999H71.7436C73.6538 76.9999 75.2112 75.4425 75.2112 73.5323V51.1492V39.1822C75.2112 37.2654 73.6471 35.7013 71.7436 35.7013Z" fill="#A3A3A3"/>
</svg>
