<svg width="101" height="124" viewBox="0 0 101 124" fill="none" xmlns="http://www.w3.org/2000/svg">
<path d="M1.5016 107.5L10.7278 109.804C10.667 109.791 10.6019 109.778 10.5455 109.761L1.31934 107.457C1.37575 107.474 1.4365 107.487 1.5016 107.5Z" fill="#858585"/>
<path d="M27.3101 16.8785C27.1756 16.8437 27.041 16.8134 26.9022 16.7873C24.6369 16.3403 22.5061 16.8524 20.5011 18.3149C18.5005 19.7687 17.2203 21.8301 16.6692 24.4859C16.1181 27.1288 16.4435 29.533 17.6413 31.6811C18.7739 33.6948 20.4143 34.9706 22.5495 35.5044L31.78 37.8088C29.6449 37.275 28.0044 35.9991 26.8718 33.9855C25.674 31.8374 25.3486 29.4375 25.8997 26.7903C26.4552 24.1301 27.7354 22.0731 29.736 20.6149C31.7409 19.1481 33.8717 18.6404 36.1327 19.0874C36.2716 19.1134 36.4061 19.1438 36.5406 19.1742L27.3101 16.8785Z" fill="url(#paint0_linear_18_724)"/>
<path d="M56.7478 19.4129C55.4675 15.0732 53.3368 11.4235 50.325 8.44212C47.5823 5.72547 44.3623 3.9028 40.6518 2.97845L31.4213 0.674072C35.1274 1.60277 38.3561 3.42109 41.0945 6.13774C44.1062 9.11911 46.237 12.7731 47.5172 17.1085C48.7844 21.4438 48.9276 25.9615 47.9469 30.6613C46.9704 35.3482 45.0479 39.4796 42.1794 43.0511C39.3109 46.6357 35.8652 49.2135 31.8553 50.8105C27.8454 52.4075 23.7531 52.7937 19.5783 51.9692C19.2051 51.8954 18.8362 51.813 18.4717 51.7218L27.7022 54.0262C28.0667 54.1173 28.4356 54.1998 28.8088 54.2736C32.9836 55.0981 37.0803 54.7119 41.0901 53.1105C45.1 51.5135 48.5457 48.9358 51.4143 45.3512C54.2828 41.7796 56.2053 37.6482 57.1817 32.9614C58.1538 28.2658 58.0106 23.7482 56.7478 19.4129Z" fill="url(#paint1_linear_18_724)"/>
<path d="M31.8547 50.8105C27.8449 52.4075 23.7525 52.7938 19.5777 51.9692C15.4116 51.149 11.7967 49.2396 8.74155 46.2495C5.67773 43.2551 3.52525 39.5751 2.26674 35.1746C1.01257 30.7915 0.873689 26.2522 1.85012 21.561C2.83089 16.8655 4.77072 12.7558 7.66963 9.24063C10.5816 5.72982 14.0273 3.17808 18.0502 1.58108C22.0601 -0.0159275 26.1524 -0.402157 30.3185 0.418045C34.4933 1.24259 38.0865 3.14771 41.0983 6.12908C44.11 9.11045 46.2408 12.7645 47.521 17.0998C48.7882 21.4352 48.9314 25.9528 47.9506 30.6527C46.9742 35.3395 45.0517 39.4709 42.1832 43.0425C39.306 46.6357 35.8646 49.2092 31.8547 50.8105ZM16.6702 24.4903C16.119 27.1332 16.4445 29.5374 17.6423 31.6855C18.8487 33.8337 20.6323 35.1442 22.9844 35.6086C25.2497 36.0556 27.3718 35.5175 29.3464 33.9942C31.3079 32.471 32.5708 30.3793 33.1219 27.7364C33.6514 25.189 33.3172 22.8325 32.1238 20.6844C30.9174 18.5362 29.1728 17.2387 26.9118 16.7917C24.6465 16.3447 22.5157 16.8568 20.5108 18.3193C18.5059 19.7731 17.2257 21.8344 16.6702 24.4903Z" fill="#FFBAD2"/>
<path d="M69.7668 85.6191L78.9973 87.9235C78.8627 87.8888 78.7282 87.8584 78.5937 87.8367C76.3284 87.3897 74.1889 87.8974 72.184 89.3512C70.1834 90.818 68.8988 92.8794 68.3477 95.5223C67.7965 98.1781 68.122 100.582 69.3284 102.731C70.4481 104.744 72.0885 106.016 74.2323 106.554L65.0018 104.249C62.858 103.716 61.2176 102.44 60.0979 100.426C58.8915 98.278 58.566 95.8738 59.1172 93.2179C59.6683 90.5707 60.9485 88.5137 62.9534 87.0469C64.9584 85.5931 67.0979 85.0853 69.3632 85.5323C69.4977 85.554 69.6322 85.5887 69.7668 85.6191Z" fill="url(#paint2_linear_18_724)"/>
<path d="M99.6618 16.2579C99.4188 15.9715 99.0717 15.7675 98.603 15.6503C97.6786 15.4203 96.7586 15.1903 95.8342 14.9603C93.6818 14.4222 91.5293 13.8841 89.3724 13.3459C89.8411 13.4631 90.1927 13.6671 90.4314 13.9535C90.6874 14.266 90.7829 14.6262 90.7004 15.0384C90.6136 15.4507 90.3792 15.8803 90.006 16.336L17.8587 109.132C17.1991 110.056 16.2747 110.416 15.09 110.182L1.49805 107.5L10.7242 109.804L24.3161 112.486C25.4965 112.721 26.4209 112.36 27.0849 111.436L99.2322 18.6404C99.6054 18.1847 99.8398 17.7551 99.9266 17.3428C100.013 16.9305 99.9179 16.5747 99.6618 16.2579Z" fill="url(#paint3_linear_18_724)"/>
<path d="M90.7006 15.0385C90.6139 15.4507 90.3795 15.8804 90.0062 16.336L17.8589 109.132C17.1993 110.056 16.2749 110.416 15.0902 110.182L1.49829 107.5C0.317898 107.266 -0.163819 106.632 0.0488256 105.616C0.152978 105.109 0.326571 104.714 0.569594 104.449L72.8558 11.6795C73.5198 10.7422 74.4398 10.395 75.6245 10.6294L89.2165 13.3113C89.7633 13.4198 90.1668 13.6368 90.4359 13.9536C90.6919 14.2704 90.7874 14.6262 90.7006 15.0385Z" fill="#FFBAD2"/>
<path d="M89.9641 85.8449C91.2313 90.1802 91.3745 94.6978 90.398 99.3847C89.4173 104.085 87.4948 108.216 84.6263 111.788C81.7577 115.359 78.3207 117.95 74.3021 119.547C70.2923 121.144 66.1956 121.53 62.0338 120.71C57.859 119.885 54.2398 117.98 51.1889 114.99C48.1338 112 45.977 108.303 44.7185 103.92C43.4513 99.5322 43.3167 94.9929 44.2932 90.2974C45.2696 85.6105 47.2094 81.5052 50.1214 77.9944C53.0203 74.4792 56.4834 71.9188 60.4932 70.3218C64.5031 68.7248 68.5954 68.3342 72.7702 69.1587C76.9363 69.9833 80.5296 71.8841 83.5414 74.8698C86.5574 77.8425 88.6969 81.5095 89.9641 85.8449ZM71.7938 102.731C73.7683 101.207 75.0269 99.12 75.5824 96.4641C76.1118 93.9167 75.7733 91.5732 74.5669 89.4251C73.3604 87.2769 71.6289 85.9794 69.3636 85.5324C67.0983 85.0854 64.9588 85.5932 62.9538 87.047C60.9489 88.5138 59.673 90.5708 59.1176 93.218C58.5664 95.8739 58.8919 98.2737 60.0983 100.426C61.2961 102.574 63.0797 103.881 65.4405 104.345C67.7058 104.792 69.8192 104.254 71.7938 102.731Z" fill="#FFBAD2"/>
<path d="M99.1932 88.1492C97.926 83.8138 95.7865 80.1468 92.7748 77.1654C90.0321 74.4488 86.8077 72.6261 83.106 71.7061L73.8797 69.4017C77.5815 70.3261 80.8059 72.1487 83.5486 74.8654C86.5603 77.8468 88.7041 81.5138 89.967 85.8491C91.2342 90.1845 91.3774 94.7021 90.401 99.389C89.4202 104.089 87.4977 108.22 84.6292 111.792C81.7607 115.363 78.3236 117.954 74.3051 119.551C70.2952 121.148 66.1985 121.534 62.0367 120.714C61.6635 120.64 61.2903 120.558 60.9258 120.467L70.1563 122.771C70.5208 122.862 70.8897 122.945 71.2629 123.019C75.429 123.839 79.5214 123.453 83.5356 121.856C87.5541 120.263 90.9911 117.668 93.8553 114.096C96.7239 110.525 98.6464 106.393 99.6271 101.693C100.599 97.0022 100.456 92.4889 99.1932 88.1492Z" fill="url(#paint4_linear_18_724)"/>
<defs>
<linearGradient id="paint0_linear_18_724" x1="23.8124" y1="40.3118" x2="27.011" y2="19.0608" gradientUnits="userSpaceOnUse">
<stop stop-color="#FFA6C5"/>
<stop offset="1" stop-color="#DE5987"/>
</linearGradient>
<linearGradient id="paint1_linear_18_724" x1="41.9998" y1="6.88317" x2="37.2012" y2="48.2432" gradientUnits="userSpaceOnUse">
<stop stop-color="#FFA6C5"/>
<stop offset="1" stop-color="#DE5987"/>
</linearGradient>
<linearGradient id="paint2_linear_18_724" x1="78.1174" y1="106.777" x2="64.4071" y2="86.6677" gradientUnits="userSpaceOnUse">
<stop stop-color="#FFA6C5"/>
<stop offset="1" stop-color="#DE5987"/>
</linearGradient>
<linearGradient id="paint3_linear_18_724" x1="72.6754" y1="12.4073" x2="34.2872" y2="99.9226" gradientUnits="userSpaceOnUse">
<stop stop-color="#FFA6C5"/>
<stop offset="1" stop-color="#DE5987"/>
</linearGradient>
<linearGradient id="paint4_linear_18_724" x1="78.9414" y1="75.6905" x2="81.2256" y2="120.021" gradientUnits="userSpaceOnUse">
<stop stop-color="#FFA6C5"/>
<stop offset="1" stop-color="#DE5987"/>
</linearGradient>
</defs>
</svg>
