<svg width="62" height="66" viewBox="0 0 62 66" fill="none" xmlns="http://www.w3.org/2000/svg">
<path d="M14.6134 11.6385C14.7757 10.7853 14.9331 9.96154 15.0904 9.13534C15.2232 8.44438 15.3289 7.74605 15.5011 7.06247C16.0568 4.86419 18.3313 3.45276 20.5099 3.93225C21.3681 4.12158 21.8992 4.87402 21.791 5.75186C21.6902 6.57314 20.9845 7.17311 20.1337 7.16082C20.0206 7.15836 19.9075 7.14361 19.7943 7.13623C19.1919 7.09689 18.7518 7.41901 18.6387 8.00915C18.0903 10.8763 17.5469 13.7458 17.001 16.6154C16.6469 18.4793 16.2953 20.3431 15.9412 22.2094C15.9289 22.2758 15.9215 22.3422 15.9117 22.4283C16.7379 22.4283 17.5543 22.4283 18.3215 22.4283C19.8312 17.7195 21.3361 13.0303 22.841 8.3411C23.3082 6.8805 23.7729 5.4199 24.245 3.96175C24.995 1.65036 27.326 0.388937 29.5932 1.06022C30.5325 1.33808 31.0292 2.18149 30.7882 3.08638C30.5546 3.95929 29.6817 4.44616 28.7571 4.2224C28.0563 4.05273 27.5818 4.31093 27.3605 4.99697C25.5212 10.7164 23.6844 16.4359 21.8476 22.1553C21.8205 22.2389 21.8033 22.3275 21.7762 22.4308C22.8164 22.4308 23.8368 22.4308 24.7983 22.4308C25.4622 20.8275 26.1113 19.2563 26.763 17.6875C28.8284 12.7278 30.8939 7.76817 32.9594 2.80852C33.9651 0.39631 36.3946 -0.616766 38.7994 0.381558C45.0082 2.96097 51.217 5.54531 57.4233 8.1321C59.7888 9.11812 60.7945 11.5647 59.8158 13.9352C58.67 16.7064 57.5143 19.4727 56.3635 22.2414C56.3168 22.3545 56.275 22.4676 56.2405 22.5586C56.7987 22.7725 57.352 22.9299 57.8511 23.1856C60.4871 24.543 61.9551 26.7191 61.9698 29.6821C62.0166 39.2498 61.9994 48.8199 61.9821 58.3876C61.9748 62.3268 58.8347 65.4988 54.8808 65.6365C54.7898 65.639 54.6988 65.6414 54.6078 65.6414C38.8609 65.6414 23.1139 65.6513 7.36694 65.6316C4.53672 65.6292 2.37778 64.3308 0.93685 61.8891C0.270481 60.7556 0 59.5113 0 58.2007C0.00245893 50.0076 0.00245757 41.8169 0.00245757 33.6238C0.00245757 28.6518 0.00245757 23.6799 0.00245757 18.7079C0.00245757 15.0392 2.50073 12.1672 6.13256 11.6779C6.47927 11.6311 6.83581 11.6361 7.1899 11.6361C9.51113 11.6336 11.8324 11.6336 14.1536 11.6336C14.2913 11.6385 14.4265 11.6385 14.6134 11.6385ZM58.697 37.4253C58.7044 37.3269 58.7142 37.2728 58.7142 37.2187C58.7142 34.6811 58.7339 32.1435 58.697 29.6059C58.6896 29.0994 58.5544 28.5559 58.338 28.0961C57.5905 26.515 56.2996 25.7282 54.5537 25.7282C38.8633 25.7257 23.1729 25.7233 7.48251 25.7306C6.0465 25.7306 4.71622 25.3962 3.48922 24.6462C3.43512 24.6143 3.37365 24.5946 3.28267 24.5553C3.28267 24.7052 3.28267 24.8159 3.28267 24.9266C3.28267 36.0212 3.28267 47.1135 3.28267 58.2081C3.28267 60.613 5.03342 62.3735 7.43333 62.3735C23.136 62.376 38.8387 62.376 54.539 62.3735C56.9659 62.3735 58.7118 60.6228 58.7142 58.1958C58.7167 56.2729 58.7142 54.3501 58.7142 52.4272C58.7142 52.3165 58.7142 52.2059 58.7142 52.0583C58.547 52.0583 58.4142 52.0583 58.279 52.0583C55.4807 52.0583 52.68 52.0608 49.8818 52.0583C47.981 52.0559 46.6852 50.7649 46.6827 48.8691C46.6802 46.1151 46.6802 43.3611 46.6852 40.6096C46.6852 40.3711 46.6901 40.1276 46.7368 39.8965C47.0417 38.4039 48.249 37.4351 49.8203 37.4302C52.6185 37.4228 55.4193 37.4277 58.2175 37.4277C58.3651 37.4253 58.5126 37.4253 58.697 37.4253ZM45.2688 6.62477C42.2198 11.0041 38.1748 12.5311 33.0332 11.164C31.4792 14.8991 29.9177 18.6514 28.344 22.4332C29.0645 22.4332 29.7407 22.4332 30.4267 22.4332C30.4612 22.3521 30.4931 22.2685 30.5276 22.1849C32.2291 18.167 36.5544 15.7326 40.828 16.4654C44.2828 17.058 46.7589 18.9784 48.1949 22.1922C48.2835 22.3889 48.3794 22.4603 48.5957 22.4553C49.3236 22.4406 50.0514 22.4504 50.7793 22.4504C51.4383 22.4504 52.0948 22.4504 52.7341 22.4504C53.1103 21.5406 53.4718 20.6603 53.8185 19.8218C49.2228 17.1072 47.4425 13.1827 48.4335 7.94522C47.3958 7.50999 46.3188 7.06246 45.2688 6.62477ZM13.9864 14.9458C13.8806 14.9359 13.7921 14.9212 13.7036 14.9212C11.4414 14.9212 9.17671 14.9187 6.9145 14.9212C4.74573 14.9261 3.11792 16.8097 3.30725 18.7866C3.5138 20.9406 5.21784 22.4406 7.38661 22.4455C9.01196 22.4504 10.6398 22.4455 12.2651 22.4455C12.3733 22.4455 12.484 22.4332 12.57 22.4283C13.0471 19.9202 13.5143 17.4441 13.9864 14.9458ZM49.985 40.7202C49.985 43.4177 49.985 46.0831 49.985 48.7585C52.9038 48.7585 55.7955 48.7585 58.6921 48.7585C58.6921 46.0684 58.6921 43.4029 58.6921 40.7202C55.7856 40.7202 52.9013 40.7202 49.985 40.7202ZM55.1193 16.731C55.7119 15.29 56.3119 13.8811 56.87 12.4573C57.0667 11.9533 56.784 11.4344 56.2676 11.2033C55.8422 11.014 55.4094 10.8443 54.9791 10.6648C53.848 10.1951 52.7169 9.72548 51.5858 9.25337C50.9711 11.4566 51.9276 15.0884 55.1193 16.731ZM42.1312 5.31908C40.5723 4.66993 39.0453 4.03061 37.5134 3.39866C36.8273 3.11589 36.2888 3.34456 35.9987 4.03798C35.6249 4.92811 35.2561 5.8207 34.8872 6.71083C34.7004 7.16081 34.5159 7.60835 34.3291 8.05833C36.9306 8.97551 40.4002 7.98948 42.1312 5.31908ZM44.6467 22.4332C43.1197 20.3874 41.1575 19.4309 38.6961 19.6694C36.7708 19.8563 35.2487 20.8005 34.1078 22.4332C37.6363 22.4332 41.0985 22.4332 44.6467 22.4332Z" fill="#336466"/>
<path d="M51.4209 44.7479C51.416 43.6193 52.3455 42.6849 53.4766 42.6775C54.6052 42.6702 55.5396 43.5972 55.5445 44.7307C55.5519 45.8594 54.6224 46.7962 53.4913 46.8036C52.3676 46.811 51.4258 45.8766 51.4209 44.7479Z" fill="#336466"/>
</svg>
