<svg width="65" height="46" viewBox="0 0 65 46" fill="none" xmlns="http://www.w3.org/2000/svg">
<path d="M64.6566 23.2458C63.4323 21.6845 62.208 20.1232 60.9897 18.5579L60.9159 18.4642C60.7704 18.2808 60.6208 18.0913 60.5191 17.88C59.913 16.6198 59.3128 15.3576 58.7126 14.0934C57.8711 12.3268 57.0018 10.4983 56.1344 8.70769C54.5153 5.36579 51.8075 3.66094 48.0867 3.639C46.3101 3.62903 44.5055 3.63103 42.7588 3.63502C41.9592 3.63502 41.1616 3.63702 40.362 3.63702H40.0151L39.9912 3.52734C39.9852 3.50541 39.9832 3.49146 39.9832 3.47351C39.9832 3.27611 39.9792 3.0787 39.9772 2.88129C39.9712 2.43863 39.9633 1.98202 39.9872 1.53138C40.0091 1.11265 39.8815 0.743754 39.6163 0.462603C39.3332 0.165501 38.9244 0 38.4658 0H38.4638C30.6594 0.0119638 22.7233 0.00997961 15.0505 0.00997961H8.3827C8.31091 0.00997961 8.24111 0.00997133 8.17132 0.0139593C7.73464 0.0438689 7.34782 0.269197 7.11452 0.634094C6.88123 0.996998 6.83338 1.43965 6.98692 1.84642C7.19628 2.40274 7.69876 2.72178 8.36674 2.72178H37.2794V5.45353C37.2794 9.80238 37.2794 14.1532 37.2813 18.5021C37.2813 18.6736 37.2873 18.871 37.3352 19.0504C37.5007 19.6825 38.0311 20.0434 38.7868 20.0434C45.347 20.0434 51.9071 20.0434 58.4673 20.0394C58.6627 20.0394 58.7904 20.0993 58.906 20.2488C59.3706 20.845 59.8352 21.4412 60.2998 22.0354C60.9199 22.827 61.538 23.6186 62.1522 24.4142C62.2539 24.5438 62.3177 24.7293 62.3197 24.8868C62.3257 28.2107 62.3257 31.5327 62.3257 34.8567V36.8247H56.7425L56.7326 36.7629C56.1344 33.1538 52.7825 30.3244 49.1036 30.3224C49.1016 30.3224 49.0996 30.3224 49.0976 30.3224C47.3868 30.3224 45.8415 30.8049 44.5035 31.754C42.7987 32.9664 41.7219 34.6513 41.3012 36.7629L41.2893 36.8227H27.0981L27.0862 36.7609C26.4182 33.2376 23.485 30.5975 19.9497 30.3403C18.2648 30.2167 16.6956 30.5975 15.2898 31.4689C13.3457 32.6753 12.1214 34.4599 11.6548 36.7729L11.6428 36.8327H10.604C9.63291 36.8327 8.67381 36.8307 7.71271 36.8367C7.47742 36.8387 7.28402 36.8626 7.1225 36.9105C6.48643 37.1019 6.10956 37.722 6.20926 38.4159C6.30098 39.056 6.87325 39.5405 7.54323 39.5425C8.81738 39.5485 10.0975 39.5465 11.3437 39.5405C11.3457 39.5405 11.3477 39.5405 11.3517 39.5405C11.5591 39.5405 11.6807 39.5904 11.7346 39.8396C12.0576 41.3331 12.7674 42.6352 13.8482 43.7079C15.4932 45.341 17.7544 46.1605 20.0574 45.9591C22.3624 45.7577 24.4541 44.5534 25.7921 42.6551C26.4301 41.7518 26.8509 40.7568 27.0782 39.6143L27.0901 39.5585L27.2138 39.5505C27.2537 39.5485 27.2876 39.5445 27.3195 39.5445H30.0592C33.7141 39.5445 37.3671 39.5445 41.02 39.5405C41.2334 39.5405 41.2853 39.6482 41.3351 39.7977C41.3909 39.9632 41.4428 40.1307 41.4946 40.2982C41.6442 40.7828 41.7997 41.2852 42.033 41.7319C43.6461 44.8285 46.9023 46.4456 50.3339 45.8574C52.9121 45.4148 54.8283 43.9731 56.0227 41.5744C56.2301 41.1576 56.3796 40.715 56.5372 40.2464C56.6109 40.029 56.6847 39.8097 56.7665 39.5904L56.7844 39.5405H58.6528C59.8452 39.5405 61.0375 39.5405 62.228 39.5405C63.7793 39.5385 64.9956 38.3262 64.9956 36.7808V33.5925C64.9956 30.4699 64.9956 27.3493 64.9996 24.2268C64.9976 23.8559 64.8899 23.5409 64.6566 23.2458ZM39.9852 17.3456V6.32489H42.7289C44.5314 6.3229 46.332 6.3229 48.1346 6.32689C50.7148 6.33486 52.5831 7.50532 53.6878 9.80836C54.5352 11.577 55.3787 13.3477 56.2221 15.1183L57.1393 17.0465C57.1573 17.0844 57.1732 17.1243 57.1912 17.1721L57.259 17.3476H39.9852V17.3456ZM22.9746 41.8037C22.0015 42.7648 20.7114 43.2952 19.3416 43.2952C19.3396 43.2952 19.3376 43.2952 19.3356 43.2952C16.5181 43.2932 14.227 40.9762 14.229 38.1308C14.231 35.3173 16.538 33.0302 19.3695 33.0302C19.3695 33.0302 19.3695 33.0302 19.3715 33.0302C20.7473 33.0302 22.0334 33.5666 22.9965 34.5396C23.9576 35.5127 24.488 36.8128 24.486 38.2045C24.486 39.5605 23.9496 40.8406 22.9746 41.8037ZM52.611 41.7917C51.636 42.7608 50.3439 43.2952 48.974 43.2952H48.972C46.1466 43.2932 43.8495 40.9702 43.8515 38.1168C43.8535 35.3113 46.1565 33.0302 48.988 33.0302C50.3578 33.0302 51.6479 33.5646 52.619 34.5376C53.5901 35.5087 54.1245 36.7988 54.1245 38.1687C54.1245 39.5345 53.5881 40.8206 52.611 41.7917Z" fill="#336466"/>
<path d="M17.581 17.3715C15.611 17.3715 13.6429 17.3715 11.6729 17.3715H1.56341C1.55743 17.3715 1.55144 17.3715 1.54546 17.3715C1.44178 17.3715 1.35005 17.3715 1.26033 17.3795C0.544489 17.4373 -0.00983748 18.0315 0.000132388 18.7354C0.00810828 19.4752 0.600316 20.0793 1.31815 20.0793C7.77663 20.0873 12.9969 20.0873 17.7405 20.0773C18.1712 20.0773 18.56 19.87 18.8073 19.5111C19.0645 19.1402 19.1223 18.6656 18.9628 18.2429C18.7535 17.6906 18.251 17.3715 17.581 17.3715Z" fill="#336466"/>
<path d="M21.5543 8.88919C21.3928 8.8513 21.2193 8.8513 21.0499 8.8513C15.7439 8.84931 10.4359 8.8493 5.12798 8.8493C5.02629 8.8493 4.9226 8.85131 4.8209 8.85729C4.26259 8.8872 3.78005 9.26405 3.61655 9.79844C3.48694 10.2232 3.55673 10.6618 3.80797 11.0008C4.06719 11.3517 4.48393 11.5531 4.95052 11.5531C6.8408 11.5551 8.73109 11.5551 10.6214 11.5551H13.078H18.3181C19.2972 11.5551 20.2742 11.5571 21.2532 11.5511C21.9511 11.5472 22.5154 11.0427 22.5952 10.3528C22.6769 9.67482 22.2283 9.04472 21.5543 8.88919Z" fill="#336466"/>
<path d="M13.4775 26.1291C13.2362 25.9656 12.9551 25.8938 12.5642 25.8938H10.321C8.5763 25.8938 6.82957 25.8938 5.08485 25.8938C4.97917 25.8938 4.87946 25.8998 4.78375 25.9097C4.03801 25.9975 3.51161 26.5997 3.55747 27.3115C3.60732 28.0712 4.17958 28.6036 4.94926 28.6036C5.83658 28.6036 6.72389 28.6036 7.61121 28.6036H8.82155H9.98604C10.9033 28.6036 11.8225 28.6036 12.7397 28.6016C13.3339 28.5996 13.8484 28.2128 14.0198 27.6385C14.1893 27.0702 13.972 26.4621 13.4775 26.1291Z" fill="#336466"/>
</svg>
