<svg width="62" height="62" viewBox="0 0 62 62" fill="none" xmlns="http://www.w3.org/2000/svg">
<path d="M41.7477 1.51926C39.7221 -0.50642 36.4258 -0.50642 34.4001 1.51926L10.8036 25.1157H5.1965C2.33135 25.1157 0 27.4471 0 30.3122V56.8035C0 59.6686 2.33135 62 5.1965 62H47.3435C50.2086 62 52.54 59.6686 52.54 56.8035V35.5407L60.4807 27.5999C62.5064 25.5742 62.5064 22.2779 60.4807 20.2523L41.7477 1.51926ZM36.5581 3.67953C36.9618 3.27576 37.5002 3.0522 38.0728 3.0522C38.6454 3.0522 39.1837 3.27576 39.5875 3.67953L49.4581 13.5502L37.8903 25.118H15.1196L36.5581 3.67953ZM49.4855 56.8035C49.4855 57.9851 48.5251 58.9455 47.3435 58.9455H5.1965C4.01486 58.9455 3.05449 57.9851 3.05449 56.8035V30.3122C3.05449 29.1306 4.01486 28.1702 5.1965 28.1702H47.3435C48.5251 28.1702 49.4855 29.1306 49.4855 30.3122V56.8035ZM48.1989 25.1864L48.0483 25.1659C47.8088 25.134 47.5716 25.1157 47.3435 25.1157H42.2085L51.6161 15.7059L54.6455 18.7353L48.1989 25.1864ZM58.3205 25.4419L52.5377 31.2247V30.3122C52.5377 29.0484 52.0746 27.828 51.2351 26.8768L51.0435 26.6601L56.8058 20.8978L58.3205 22.4125C58.7242 22.8163 58.9478 23.3546 58.9478 23.9272C58.9478 24.4998 58.7265 25.0382 58.3205 25.4419Z" fill="#336466"/>
<path d="M13.5505 49.725H7.33887V52.7772H13.5505V49.725Z" fill="#336466"/>
<path d="M24.1013 49.725H17.8896V52.7772H24.1013V49.725Z" fill="#336466"/>
<path d="M34.6511 49.725H28.4395V52.7772H34.6511V49.725Z" fill="#336466"/>
<path d="M45.2019 49.725H38.9902V52.7772H45.2019V49.725Z" fill="#336466"/>
<path d="M7.33887 34.3385V44.7292H19.1074V34.3385H7.33887ZM16.0552 41.677H10.3934V37.393H16.0552V41.677Z" fill="#336466"/>
</svg>
